<svg width="16" height="16" viewBox="0 0 16 16" fill="none" xmlns="http://www.w3.org/2000/svg">
<path d="M7.99971 0C3.58899 0 0 3.5887 0 8C0 12.4113 3.58899 16 7.99971 16C12.4113 16 15.9997 12.4113 15.9997 8C15.9997 3.5887 12.4113 0 7.99971 0ZM7.99971 14.9334C4.17676 14.9334 1.06661 11.8232 1.06661 8C1.06661 4.17676 4.17705 1.06661 7.99971 1.06661C11.8232 1.06661 14.9331 4.17676 14.9331 8C14.9331 11.8232 11.8235 14.9334 7.99971 14.9334Z" fill="white"/>
<path d="M11.9617 7.42041H8.53308V2.88696C8.53308 2.59236 8.29423 2.35352 7.99991 2.35352C7.70589 2.35352 7.46704 2.59265 7.46704 2.88696V8.48673H11.9617C12.256 8.48673 12.4948 8.24818 12.4946 7.95357C12.4946 7.65926 12.2554 7.42041 11.9617 7.42041Z" fill="white"/>
</svg>
