<svg width="16" height="24" viewBox="0 0 16 24" fill="none" xmlns="http://www.w3.org/2000/svg">
<path d="M8 0.618164C3.58857 0.618164 0 4.20788 0 8.61816C0 12.8593 7.232 22.7302 7.53943 23.1496C7.64686 23.2947 7.81829 23.3816 8 23.3816C8.18171 23.3816 8.35314 23.2947 8.46057 23.1496C8.768 22.7302 16 12.8593 16 8.61816C16 4.20788 12.4114 0.618164 8 0.618164ZM8 21.8307C6.39429 19.5679 1.14286 11.9153 1.14286 8.61816C1.14286 4.83645 4.21829 1.76102 8 1.76102C11.7817 1.76102 14.8571 4.83645 14.8571 8.61816C14.8571 11.913 9.60571 19.5667 8 21.8307Z" fill="white"/>
<path d="M7.99992 5.0957C6.10964 5.0957 4.57135 6.63399 4.57135 8.52427C4.57135 10.4146 6.10964 11.9528 7.99992 11.9528C9.89021 11.9528 11.4285 10.4146 11.4285 8.52427C11.4285 6.63399 9.89021 5.0957 7.99992 5.0957ZM7.99992 10.81C6.73935 10.81 5.71421 9.7837 5.71421 8.52427C5.71421 7.26256 6.73935 6.23856 7.99992 6.23856C9.26049 6.23856 10.2856 7.26256 10.2856 8.52427C10.2856 9.7837 9.26049 10.81 7.99992 10.81Z" fill="white"/>
</svg>
