<svg width="158" height="36" viewBox="0 0 158 36" fill="none" xmlns="http://www.w3.org/2000/svg">
<path d="M16.0841 28.825C16.6239 28.825 17.098 28.9567 17.5062 29.2201C17.9144 29.4834 18.2287 29.8307 18.4493 30.2619C18.6732 30.6965 18.7851 31.1557 18.7851 31.6396C18.7851 32.1795 18.6468 32.6749 18.3703 33.1259C18.0971 33.5769 17.7284 33.9324 17.2642 34.1925C16.8033 34.4525 16.303 34.5826 15.7631 34.5826C15.2298 34.5826 14.7574 34.4542 14.3459 34.1974C13.9344 33.9374 13.6151 33.5868 13.388 33.1457C13.1641 32.7045 13.0522 32.2239 13.0522 31.7038V31.6742H11.6746V33.758C11.6746 33.9357 11.6943 34.0674 11.7338 34.153C11.77 34.2386 11.8424 34.2962 11.9511 34.3258C12.0564 34.3554 12.2243 34.3702 12.4547 34.3702C12.4679 34.3702 12.4745 34.3884 12.4745 34.4246C12.4745 34.4575 12.4679 34.4739 12.4547 34.4739C12.2737 34.4739 12.1288 34.4723 12.0202 34.469L11.3832 34.4591L10.766 34.469C10.6606 34.4723 10.5125 34.4739 10.3216 34.4739C10.3117 34.4739 10.3068 34.4575 10.3068 34.4246C10.3068 34.3884 10.3117 34.3702 10.3216 34.3702C10.5487 34.3702 10.7166 34.3554 10.8252 34.3258C10.9339 34.2962 11.0079 34.2386 11.0474 34.153C11.0869 34.0674 11.1067 33.9357 11.1067 33.758V29.6398C11.1067 29.462 11.0869 29.332 11.0474 29.2497C11.0079 29.1674 10.9355 29.1098 10.8302 29.0769C10.7248 29.0439 10.5586 29.0275 10.3315 29.0275C10.3216 29.0275 10.3166 29.0094 10.3166 28.9732C10.3166 28.937 10.3216 28.9189 10.3315 28.9189L10.7857 28.9287C11.0359 28.9419 11.2351 28.9485 11.3832 28.9485C11.5544 28.9485 11.77 28.9419 12.0301 28.9287L12.4547 28.9189C12.4679 28.9189 12.4745 28.937 12.4745 28.9732C12.4745 29.0094 12.4679 29.0275 12.4547 29.0275C12.2309 29.0275 12.0646 29.0456 11.956 29.0818C11.8441 29.118 11.77 29.1789 11.7338 29.2645C11.6943 29.3501 11.6746 29.4818 11.6746 29.6595V31.4915H13.0621C13.0983 30.9286 13.2678 30.4446 13.5707 30.0397C13.8768 29.6381 14.2554 29.3353 14.7064 29.1312C15.1574 28.9271 15.6166 28.825 16.0841 28.825ZM16.0643 34.3949C16.4429 34.3949 16.7852 34.2978 17.0914 34.1036C17.3975 33.9061 17.6395 33.618 17.8173 33.2395C17.995 32.8609 18.0839 32.4116 18.0839 31.8914C18.0839 31.3318 17.9835 30.8364 17.7827 30.4051C17.5852 29.9739 17.3054 29.6365 16.9433 29.3929C16.5844 29.1493 16.1647 29.0275 15.6841 29.0275C15.0619 29.0275 14.5764 29.2382 14.2274 29.6595C13.8818 30.0809 13.7089 30.6586 13.7089 31.3927C13.7089 31.9491 13.8077 32.4577 14.0052 32.9185C14.206 33.3761 14.4858 33.7366 14.8447 33.9999C15.2035 34.2633 15.61 34.3949 16.0643 34.3949Z" fill="#1E1F1F"/>
<path d="M21.7626 33.7184C21.7626 33.9093 21.7873 34.0476 21.8366 34.1332C21.8893 34.2188 21.9881 34.2797 22.1329 34.3159C22.2778 34.3521 22.5066 34.3702 22.8193 34.3702C22.839 34.3702 22.8489 34.3883 22.8489 34.4245C22.8489 34.4574 22.839 34.4739 22.8193 34.4739C22.5757 34.4739 22.3864 34.4722 22.2514 34.469L21.4762 34.4591L20.8836 34.469C20.7684 34.4722 20.617 34.4739 20.4294 34.4739C20.4162 34.4739 20.4096 34.4574 20.4096 34.4245C20.4096 34.3883 20.4162 34.3702 20.4294 34.3702C20.6532 34.3702 20.8178 34.3554 20.9231 34.3258C21.0252 34.2961 21.0943 34.2385 21.1305 34.1529C21.1667 34.0673 21.1849 33.9357 21.1849 33.7579V29.6397C21.1849 29.462 21.1667 29.3319 21.1305 29.2496C21.0943 29.1673 21.0252 29.1097 20.9231 29.0768C20.8178 29.0439 20.6532 29.0274 20.4294 29.0274C20.4162 29.0274 20.4096 29.0093 20.4096 28.9731C20.4096 28.9369 20.4162 28.9188 20.4294 28.9188L20.8738 28.9287C21.124 28.9418 21.3215 28.9484 21.4663 28.9484C21.6144 28.9484 21.7807 28.9385 21.965 28.9188C22.0375 28.9188 22.151 28.9155 22.3057 28.9089C22.4605 28.899 22.5938 28.8941 22.7057 28.8941C23.2489 28.8941 23.6851 29.0159 24.0142 29.2595C24.3434 29.5031 24.508 29.8735 24.508 30.3705C24.508 30.7623 24.4126 31.0915 24.2216 31.3581C24.0274 31.6247 23.7789 31.8223 23.476 31.9506C23.1765 32.0823 22.8654 32.1482 22.5428 32.1482C22.3716 32.1482 22.23 32.1333 22.1181 32.1037C22.0984 32.1037 22.0885 32.0889 22.0885 32.0593C22.0885 32.0395 22.0934 32.0214 22.1033 32.005C22.1132 31.9885 22.1247 31.9819 22.1379 31.9852C22.23 32.0115 22.3354 32.0247 22.4539 32.0247C22.8456 32.0247 23.1765 31.8963 23.4464 31.6396C23.7163 31.3861 23.8513 31.019 23.8513 30.5384C23.8513 30.071 23.7246 29.7023 23.4711 29.4323C23.2143 29.1624 22.8884 29.0274 22.4934 29.0274C22.2794 29.0274 22.1247 29.039 22.0292 29.062C21.9338 29.085 21.8646 29.141 21.8218 29.2299C21.7823 29.3155 21.7626 29.4587 21.7626 29.6595V33.7184Z" fill="#1E1F1F"/>
<path d="M32.0383 34.3702C32.0482 34.3702 32.0531 34.3883 32.0531 34.4245C32.0531 34.4575 32.0482 34.4739 32.0383 34.4739C31.8474 34.4739 31.6993 34.4723 31.5939 34.469L30.9816 34.4591L30.3298 34.469C30.2245 34.4723 30.0829 34.4739 29.9052 34.4739C29.892 34.4739 29.8854 34.4575 29.8854 34.4245C29.8854 34.3883 29.892 34.3702 29.9052 34.3702C30.1356 34.3702 30.3035 34.3554 30.4088 34.3258C30.5175 34.2962 30.5899 34.2385 30.6261 34.153C30.6656 34.0674 30.6853 33.9357 30.6853 33.7579V30.0842L27.3819 33.6246V33.7579C27.3819 33.9357 27.4 34.0674 27.4362 34.153C27.4757 34.2385 27.5482 34.2962 27.6535 34.3258C27.7621 34.3554 27.9317 34.3702 28.1621 34.3702C28.1753 34.3702 28.1818 34.3883 28.1818 34.4245C28.1818 34.4575 28.1753 34.4739 28.1621 34.4739C27.9777 34.4739 27.8329 34.4723 27.7276 34.469L27.0856 34.4591L26.4733 34.469C26.368 34.4723 26.2199 34.4739 26.0289 34.4739C26.0158 34.4739 26.0092 34.4575 26.0092 34.4245C26.0092 34.3883 26.0158 34.3702 26.0289 34.3702C26.2528 34.3702 26.4207 34.3554 26.5326 34.3258C26.6412 34.2962 26.7153 34.2385 26.7548 34.153C26.791 34.0674 26.8091 33.9357 26.8091 33.7579V29.6397C26.8091 29.462 26.791 29.332 26.7548 29.2497C26.7153 29.1674 26.6429 29.1097 26.5375 29.0768C26.4289 29.0439 26.2627 29.0275 26.0388 29.0275C26.0256 29.0275 26.0191 29.0093 26.0191 28.9731C26.0191 28.9369 26.0256 28.9188 26.0388 28.9188L26.4931 28.9287C26.74 28.9419 26.9375 28.9484 27.0856 28.9484C27.2568 28.9484 27.4741 28.9419 27.7374 28.9287L28.1621 28.9188C28.1753 28.9188 28.1818 28.9369 28.1818 28.9731C28.1818 29.0093 28.1753 29.0275 28.1621 29.0275C27.9382 29.0275 27.7704 29.0456 27.6584 29.0818C27.5498 29.118 27.4757 29.1789 27.4362 29.2645C27.4 29.3501 27.3819 29.4817 27.3819 29.6595V33.3185L30.6853 29.8027V29.6595C30.6853 29.4817 30.6656 29.3501 30.6261 29.2645C30.5899 29.1789 30.5175 29.118 30.4088 29.0818C30.3035 29.0456 30.1356 29.0275 29.9052 29.0275C29.892 29.0275 29.8854 29.0093 29.8854 28.9731C29.8854 28.9369 29.892 28.9188 29.9052 28.9188L30.3298 28.9287C30.5899 28.9419 30.8071 28.9484 30.9816 28.9484C31.1297 28.9484 31.3338 28.9419 31.5939 28.9287L32.0383 28.9188C32.0482 28.9188 32.0531 28.9369 32.0531 28.9731C32.0531 29.0093 32.0482 29.0275 32.0383 29.0275C31.8112 29.0275 31.6449 29.0439 31.5396 29.0768C31.4343 29.1097 31.3618 29.1674 31.3223 29.2497C31.2828 29.332 31.2631 29.462 31.2631 29.6397V33.7579C31.2631 33.9357 31.2828 34.0674 31.3223 34.153C31.3618 34.2385 31.4343 34.2962 31.5396 34.3258C31.6449 34.3554 31.8112 34.3702 32.0383 34.3702Z" fill="#1E1F1F"/>
<path d="M39.05 34.3702C39.1027 34.3702 39.134 34.3752 39.1438 34.385C39.1504 34.3916 39.1537 34.4212 39.1537 34.4739C39.1537 34.5035 39.1488 34.5908 39.1389 34.7356C39.0961 35.0648 39.0747 35.4697 39.0747 35.9503C39.0747 35.98 39.0566 35.9948 39.0204 35.9948C38.9875 35.9948 38.971 35.98 38.971 35.9503C38.971 35.4401 38.8575 35.0665 38.6303 34.8294C38.4065 34.5924 38.0427 34.4739 37.539 34.4739H34.7541C34.3755 34.4739 34.0825 34.5858 33.8751 34.8097C33.6678 35.0302 33.5641 35.4105 33.5641 35.9503C33.5641 35.98 33.546 35.9948 33.5097 35.9948C33.4768 35.9948 33.4604 35.98 33.4604 35.9503C33.4604 35.5487 33.4357 35.1586 33.3863 34.7801C33.3698 34.6648 33.3616 34.5611 33.3616 34.469C33.3616 34.4196 33.3666 34.39 33.3764 34.3801C33.383 34.3669 33.4077 34.3603 33.4505 34.3603C33.9048 34.3603 34.2932 34.0838 34.6158 33.5308C34.9351 32.9745 35.1738 32.3292 35.3318 31.5951C35.4865 30.861 35.5639 30.2422 35.5639 29.7385C35.5639 29.5739 35.5458 29.4422 35.5096 29.3435C35.4701 29.2447 35.3845 29.1674 35.2528 29.1114C35.1244 29.0554 34.9269 29.0275 34.6603 29.0275C34.6471 29.0275 34.6405 29.0093 34.6405 28.9731C34.6405 28.9369 34.6471 28.9188 34.6603 28.9188H38.8871C38.9002 28.9188 38.9068 28.9369 38.9068 28.9731C38.9068 29.0093 38.9002 29.0275 38.8871 29.0275C38.6632 29.0275 38.4986 29.0439 38.3933 29.0768C38.2847 29.1097 38.2122 29.1674 38.176 29.2497C38.1365 29.332 38.1168 29.462 38.1168 29.6397V33.7579C38.1168 33.9884 38.1283 34.1381 38.1513 34.2073C38.1744 34.2797 38.2419 34.3241 38.3538 34.3406C38.469 34.3603 38.7011 34.3702 39.05 34.3702ZM37.539 33.7382V29.6595C37.539 29.4587 37.5292 29.3254 37.5094 29.2595C37.4864 29.1937 37.4337 29.1542 37.3514 29.141C37.2691 29.1246 37.0996 29.1163 36.8428 29.1163H36.4083C36.2305 29.1163 36.1071 29.141 36.0379 29.1904C35.9655 29.2431 35.9178 29.3303 35.8947 29.4521C35.8717 29.5772 35.8454 29.8126 35.8157 30.1582C35.7795 30.5072 35.7087 30.9466 35.6034 31.4766C35.5014 32.0066 35.3483 32.5449 35.1442 33.0913C34.9401 33.6345 34.6866 34.0312 34.3837 34.2813H36.7984C37.0716 34.2813 37.251 34.2731 37.3366 34.2566C37.4222 34.2435 37.4781 34.204 37.5045 34.1381C37.5275 34.0723 37.539 33.939 37.539 33.7382Z" fill="#1E1F1F"/>
<path d="M46.5408 34.3702C46.5539 34.3702 46.5605 34.3883 46.5605 34.4245C46.5605 34.4575 46.5539 34.4739 46.5408 34.4739C46.3531 34.4739 46.205 34.4723 46.0964 34.469L45.4841 34.4591L44.8372 34.469C44.7286 34.4723 44.5854 34.4739 44.4076 34.4739C44.3977 34.4739 44.3928 34.4575 44.3928 34.4245C44.3928 34.3883 44.3977 34.3702 44.4076 34.3702C44.638 34.3702 44.8076 34.3554 44.9162 34.3258C45.0215 34.2962 45.094 34.2385 45.1335 34.153C45.173 34.0674 45.1927 33.9357 45.1927 33.7579V30.0842L41.8844 33.6246V33.7579C41.8844 33.9357 41.9041 34.0674 41.9436 34.153C41.9798 34.2385 42.0522 34.2962 42.1609 34.3258C42.2662 34.3554 42.4341 34.3702 42.6645 34.3702C42.6777 34.3702 42.6843 34.3883 42.6843 34.4245C42.6843 34.4575 42.6777 34.4739 42.6645 34.4739C42.4835 34.4739 42.3386 34.4723 42.23 34.469L41.593 34.4591L40.9758 34.469C40.8705 34.4723 40.7223 34.4739 40.5314 34.4739C40.5215 34.4739 40.5166 34.4575 40.5166 34.4245C40.5166 34.3883 40.5215 34.3702 40.5314 34.3702C40.7585 34.3702 40.9264 34.3554 41.035 34.3258C41.1437 34.2962 41.2177 34.2385 41.2573 34.153C41.2968 34.0674 41.3165 33.9357 41.3165 33.7579V29.6397C41.3165 29.462 41.2968 29.332 41.2573 29.2497C41.2177 29.1674 41.1453 29.1097 41.04 29.0768C40.9346 29.0439 40.7684 29.0275 40.5413 29.0275C40.5314 29.0275 40.5264 29.0093 40.5264 28.9731C40.5264 28.9369 40.5314 28.9188 40.5413 28.9188L40.9955 28.9287C41.2457 28.9419 41.4449 28.9484 41.593 28.9484C41.7642 28.9484 41.9798 28.9419 42.2399 28.9287L42.6645 28.9188C42.6777 28.9188 42.6843 28.9369 42.6843 28.9731C42.6843 29.0093 42.6777 29.0275 42.6645 29.0275C42.4407 29.0275 42.2744 29.0456 42.1658 29.0818C42.0539 29.118 41.9798 29.1789 41.9436 29.2645C41.9041 29.3501 41.8844 29.4817 41.8844 29.6595V33.3185L45.1927 29.8027V29.6595C45.1927 29.4817 45.173 29.3501 45.1335 29.2645C45.094 29.1789 45.0215 29.118 44.9162 29.0818C44.8076 29.0456 44.638 29.0275 44.4076 29.0275C44.3977 29.0275 44.3928 29.0093 44.3928 28.9731C44.3928 28.9369 44.3977 28.9188 44.4076 28.9188L44.8372 28.9287C45.0973 28.9419 45.3129 28.9484 45.4841 28.9484C45.6322 28.9484 45.8363 28.9419 46.0964 28.9287L46.5408 28.9188C46.5539 28.9188 46.5605 28.9369 46.5605 28.9731C46.5605 29.0093 46.5539 29.0275 46.5408 29.0275C46.3169 29.0275 46.1507 29.0439 46.042 29.0768C45.9367 29.1097 45.8643 29.1674 45.8248 29.2497C45.7886 29.332 45.7705 29.462 45.7705 29.6397V33.7579C45.7705 33.9357 45.7886 34.0674 45.8248 34.153C45.8643 34.2385 45.9367 34.2962 46.042 34.3258C46.1507 34.3554 46.3169 34.3702 46.5408 34.3702Z" fill="#1E1F1F"/>
<path d="M52.9501 34.3702C52.9665 34.3702 52.9748 34.3883 52.9748 34.4245C52.9748 34.4575 52.9665 34.4739 52.9501 34.4739C52.7657 34.4739 52.6176 34.4723 52.5057 34.469L51.8934 34.4591L51.2613 34.469C51.1593 34.4723 51.0177 34.4739 50.8367 34.4739C50.8169 34.4739 50.8071 34.4575 50.8071 34.4245C50.8071 34.3883 50.8169 34.3702 50.8367 34.3702C51.0605 34.3702 51.2251 34.3554 51.3305 34.3258C51.4325 34.2962 51.5016 34.2402 51.5379 34.1579C51.5741 34.0723 51.5922 33.939 51.5922 33.7579V31.763C51.0984 32.1153 50.5881 32.2914 50.0614 32.2914C49.5742 32.2914 49.1825 32.1597 48.8862 31.8963C48.59 31.6363 48.4418 31.2873 48.4418 30.8495V29.6397C48.4418 29.462 48.4237 29.332 48.3875 29.2497C48.348 29.1674 48.2772 29.1097 48.1752 29.0768C48.0698 29.0439 47.9069 29.0275 47.6863 29.0275C47.6699 29.0275 47.6616 29.0093 47.6616 28.9731C47.6616 28.9369 47.6699 28.9188 47.6863 28.9188L48.0616 28.9287C48.2986 28.9419 48.5126 28.9484 48.7035 28.9484C48.8813 28.9484 49.0887 28.9419 49.3257 28.9287L49.6713 28.9188C49.6878 28.9188 49.696 28.9369 49.696 28.9731C49.696 29.0093 49.6878 29.0275 49.6713 29.0275C49.4804 29.0275 49.3389 29.0456 49.2467 29.0818C49.1545 29.118 49.0936 29.1789 49.064 29.2645C49.0311 29.3501 49.0146 29.4817 49.0146 29.6595V30.5384C49.0146 31.0421 49.1232 31.424 49.3405 31.684C49.5611 31.9441 49.8754 32.0741 50.2836 32.0741C50.728 32.0741 51.1642 31.926 51.5922 31.6297V29.6595C51.5922 29.4817 51.5757 29.3501 51.5428 29.2645C51.5099 29.1789 51.449 29.118 51.3601 29.0818C51.2712 29.0456 51.128 29.0275 50.9305 29.0275C50.9206 29.0275 50.9157 29.0093 50.9157 28.9731C50.9157 28.9369 50.9206 28.9188 50.9305 28.9188L51.3255 28.9287C51.5625 28.9419 51.7518 28.9484 51.8934 28.9484C52.0514 28.9484 52.2555 28.9419 52.5057 28.9287L52.9501 28.9188C52.9665 28.9188 52.9748 28.9369 52.9748 28.9731C52.9748 29.0093 52.9665 29.0275 52.9501 29.0275C52.7262 29.0275 52.5583 29.0439 52.4464 29.0768C52.3378 29.1097 52.2637 29.1674 52.2242 29.2497C52.188 29.332 52.1699 29.462 52.1699 29.6397V33.7579C52.1699 33.9357 52.188 34.0674 52.2242 34.153C52.2637 34.2385 52.3378 34.2962 52.4464 34.3258C52.5583 34.3554 52.7262 34.3702 52.9501 34.3702Z" fill="#1E1F1F"/>
<path d="M58.3274 33.1506C58.3274 33.1407 58.339 33.1358 58.362 33.1358C58.3818 33.1358 58.3982 33.1374 58.4114 33.1407C58.4279 33.1473 58.4361 33.1572 58.4361 33.1703C58.3801 33.5423 58.3521 33.9324 58.3521 34.3406C58.3521 34.39 58.3423 34.4245 58.3225 34.4443C58.3028 34.464 58.2665 34.4739 58.2139 34.4739H54.4858C54.4759 34.4739 54.471 34.4575 54.471 34.4245C54.471 34.3883 54.4759 34.3702 54.4858 34.3702C54.7129 34.3702 54.8775 34.3554 54.9796 34.3258C55.0849 34.2962 55.1573 34.2385 55.1968 34.153C55.2331 34.0674 55.2512 33.9357 55.2512 33.7579V29.6397C55.2512 29.462 55.2331 29.332 55.1968 29.2497C55.1573 29.1674 55.0849 29.1097 54.9796 29.0768C54.8775 29.0439 54.7129 29.0275 54.4858 29.0275C54.4759 29.0275 54.471 29.0093 54.471 28.9731C54.471 28.9369 54.4759 28.9188 54.4858 28.9188H58.0608C58.1135 28.9188 58.1398 28.9468 58.1398 29.0028L58.1596 30.094C58.1596 30.1105 58.1447 30.1204 58.1151 30.1237C58.0855 30.1269 58.0674 30.1204 58.0608 30.1039C58.0443 29.7879 57.9489 29.5426 57.7744 29.3682C57.6032 29.1937 57.3761 29.1065 57.093 29.1065H56.5498C56.3424 29.1065 56.1894 29.1229 56.0906 29.1558C55.9951 29.1888 55.9276 29.2447 55.8881 29.3237C55.8486 29.406 55.8289 29.5262 55.8289 29.6842V31.4914H56.9152C57.1983 31.4914 57.4008 31.4437 57.5226 31.3482C57.6444 31.2528 57.7053 31.0931 57.7053 30.8693C57.7053 30.8561 57.7234 30.8495 57.7596 30.8495C57.7958 30.8495 57.8139 30.8561 57.8139 30.8693L57.804 31.5853C57.804 31.7597 57.8073 31.8914 57.8139 31.9803L57.8188 32.4049C57.8188 32.4181 57.8024 32.4247 57.7695 32.4247C57.7333 32.4247 57.7152 32.4181 57.7152 32.4049C57.7152 32.1449 57.651 31.9589 57.5226 31.847C57.3942 31.7318 57.1819 31.6741 56.8856 31.6741H55.8289V33.7184C55.8289 33.8863 55.847 34.0081 55.8832 34.0838C55.9194 34.1628 55.9853 34.2171 56.0807 34.2468C56.1729 34.2764 56.321 34.2912 56.5251 34.2912H57.2362C57.5193 34.2912 57.7563 34.1892 57.9472 33.9851C58.1349 33.7843 58.2616 33.5061 58.3274 33.1506Z" fill="#1E1F1F"/>
<path d="M63.4036 28.825C63.6867 28.825 63.9731 28.8514 64.2628 28.904C64.5557 28.9567 64.7878 29.0341 64.959 29.1361C65.0117 29.1592 65.0462 29.1838 65.0627 29.2102C65.0759 29.2365 65.0857 29.2826 65.0923 29.3484L65.1911 30.341C65.1911 30.3607 65.1763 30.3722 65.1466 30.3755C65.117 30.3788 65.0989 30.3706 65.0923 30.3508C64.9606 29.8965 64.7187 29.5608 64.3664 29.3435C64.0142 29.1262 63.578 29.0176 63.0579 29.0176C62.6069 29.0176 62.2119 29.118 61.8728 29.3188C61.5371 29.5163 61.277 29.7961 61.0926 30.1583C60.9083 30.5171 60.8161 30.9335 60.8161 31.4075C60.8161 31.9606 60.9297 32.4708 61.1568 32.9383C61.3873 33.4057 61.6967 33.7761 62.0852 34.0493C62.4703 34.3225 62.8884 34.4591 63.3394 34.4591C63.7673 34.4591 64.1377 34.3423 64.4504 34.1085C64.7664 33.8748 65.0067 33.5144 65.1713 33.0272C65.1713 33.0107 65.1828 33.0025 65.2059 33.0025C65.2256 33.0025 65.2421 33.0041 65.2553 33.0074C65.2717 33.014 65.28 33.0239 65.28 33.037L65.1516 34.0394C65.1417 34.1118 65.1285 34.1579 65.1121 34.1777C65.0989 34.1974 65.066 34.2205 65.0133 34.2468C64.48 34.4707 63.9171 34.5826 63.3246 34.5826C62.6135 34.5826 62.0193 34.4394 61.542 34.153C61.0647 33.8633 60.7124 33.4962 60.4853 33.0518C60.2614 32.6074 60.1495 32.14 60.1495 31.6495C60.1495 31.103 60.3009 30.6142 60.6038 30.1829C60.9067 29.7517 61.3066 29.4176 61.8037 29.1806C62.3008 28.9435 62.8341 28.825 63.4036 28.825Z" fill="#1E1F1F"/>
<path d="M72.2572 34.3702C72.2671 34.3702 72.2721 34.3883 72.2721 34.4245C72.2721 34.4575 72.2671 34.4739 72.2572 34.4739H71.1364C71.0541 34.4739 70.9816 34.4525 70.9191 34.4097C70.8565 34.3636 70.7545 34.2468 70.6129 34.0591C70.4681 33.8682 70.213 33.5094 69.8476 32.9827C69.5579 32.5679 69.3472 32.2799 69.2155 32.1186C69.0838 31.9605 68.9505 31.847 68.8156 31.7778C68.6806 31.7087 68.4962 31.6741 68.2625 31.6741C68.2098 31.6741 68.172 31.6774 68.1489 31.684V33.7579C68.1489 33.9357 68.1687 34.0674 68.2082 34.153C68.2444 34.2385 68.3152 34.2962 68.4205 34.3258C68.5226 34.3554 68.6905 34.3702 68.9242 34.3702C68.9341 34.3702 68.939 34.3883 68.939 34.4245C68.939 34.4575 68.9341 34.4739 68.9242 34.4739C68.7398 34.4739 68.5934 34.4723 68.4847 34.469L67.8477 34.4591L67.2404 34.469C67.135 34.4723 66.9869 34.4739 66.796 34.4739C66.7861 34.4739 66.7812 34.4575 66.7812 34.4245C66.7812 34.3883 66.7861 34.3702 66.796 34.3702C67.0231 34.3702 67.1894 34.3554 67.2947 34.3258C67.4033 34.2962 67.4758 34.2385 67.512 34.153C67.5515 34.0674 67.5712 33.9357 67.5712 33.7579V29.6397C67.5712 29.462 67.5531 29.332 67.5169 29.2497C67.4807 29.1674 67.4099 29.1097 67.3046 29.0768C67.1992 29.0439 67.033 29.0275 66.8058 29.0275C66.796 29.0275 66.791 29.0093 66.791 28.9731C66.791 28.9369 66.796 28.9188 66.8058 28.9188L67.2404 28.9287C67.4906 28.9419 67.693 28.9484 67.8477 28.9484C68.0189 28.9484 68.2345 28.9419 68.4946 28.9287L68.9242 28.9188C68.9341 28.9188 68.939 28.9369 68.939 28.9731C68.939 29.0093 68.9341 29.0275 68.9242 29.0275C68.697 29.0275 68.5308 29.0456 68.4255 29.0818C68.3168 29.118 68.2444 29.1789 68.2082 29.2645C68.1687 29.3501 68.1489 29.4817 68.1489 29.6595V31.5359C68.4683 31.5227 68.6674 31.5161 68.7464 31.5161H68.9143L69.9908 30.015C70.2574 29.6463 70.3907 29.3912 70.3907 29.2497C70.3907 29.1739 70.3529 29.118 70.2772 29.0818C70.2047 29.0456 70.0912 29.0275 69.9365 29.0275C69.9233 29.0275 69.9167 29.0093 69.9167 28.9731C69.9167 28.9369 69.9233 28.9188 69.9365 28.9188L70.3167 28.9287C70.5438 28.9419 70.7545 28.9484 70.9487 28.9484C71.1495 28.9484 71.3569 28.9419 71.5709 28.9287L71.8918 28.9188C71.9083 28.9188 71.9165 28.9369 71.9165 28.9731C71.9165 29.0093 71.9083 29.0275 71.8918 29.0275C71.5824 29.0275 71.3092 29.1032 71.0722 29.2546C70.8351 29.406 70.58 29.6628 70.3068 30.0249L69.1168 31.5408C69.2583 31.5672 69.3818 31.6149 69.4871 31.684C69.5892 31.7564 69.6945 31.8568 69.8031 31.9852C69.9085 32.1103 70.0648 32.321 70.2722 32.6173L70.4055 32.8049C70.6854 33.1967 70.9109 33.4962 71.082 33.7036C71.2532 33.911 71.4343 34.0723 71.6252 34.1875C71.8128 34.3027 72.0235 34.3636 72.2572 34.3702Z" fill="#1E1F1F"/>
<path d="M79.3825 34.3702C79.4055 34.3702 79.4171 34.3883 79.4171 34.4246C79.4171 34.4575 79.4055 34.4739 79.3825 34.4739C79.2706 34.4739 79.0961 34.469 78.8591 34.4591C78.6221 34.446 78.4509 34.4394 78.3456 34.4394C78.2139 34.4394 78.0476 34.446 77.8468 34.4591C77.6559 34.469 77.5111 34.4739 77.4123 34.4739C77.386 34.4739 77.3728 34.4575 77.3728 34.4246C77.3728 34.3883 77.386 34.3702 77.4123 34.3702C77.6296 34.3702 77.7892 34.3488 77.8913 34.306C77.99 34.2665 78.0394 34.1958 78.0394 34.0937C78.0394 34.0114 78.0015 33.8847 77.9258 33.7135L76.9037 31.5359H75.2248L74.4595 33.3481C74.3772 33.5489 74.336 33.7151 74.336 33.8468C74.336 34.1958 74.6257 34.3702 75.2051 34.3702C75.2347 34.3702 75.2495 34.3883 75.2495 34.4246C75.2495 34.4575 75.2347 34.4739 75.2051 34.4739C75.0997 34.4739 74.9467 34.469 74.7459 34.4591C74.5187 34.446 74.3228 34.4394 74.1582 34.4394C74.0035 34.4394 73.8258 34.446 73.625 34.4591C73.4472 34.469 73.2991 34.4739 73.1805 34.4739C73.1509 34.4739 73.1361 34.4575 73.1361 34.4246C73.1361 34.3883 73.1509 34.3702 73.1805 34.3702C73.3451 34.3702 73.4851 34.339 73.6003 34.2764C73.7155 34.2139 73.8258 34.1036 73.9311 33.9456C74.0332 33.7909 74.1467 33.5654 74.2718 33.2691L76.1482 28.8398C76.1614 28.8234 76.1828 28.8151 76.2124 28.8151C76.242 28.8151 76.2585 28.8234 76.2618 28.8398L78.3604 33.2592C78.5612 33.697 78.734 33.9917 78.8788 34.1431C79.0204 34.2945 79.1883 34.3702 79.3825 34.3702ZM76.0149 29.6595L75.3038 31.3483H76.8148L76.0149 29.6595Z" fill="#1E1F1F"/>
<path d="M85.2042 34.3702C85.2174 34.3702 85.224 34.3883 85.224 34.4245C85.224 34.4574 85.2174 34.4739 85.2042 34.4739C85.0166 34.4739 84.8685 34.4722 84.7598 34.469L84.1475 34.4591L83.5254 34.469C83.42 34.4722 83.2752 34.4739 83.0908 34.4739C83.0777 34.4739 83.0711 34.4574 83.0711 34.4245C83.0711 34.3883 83.0777 34.3702 83.0908 34.3702C83.3147 34.3702 83.4809 34.3554 83.5896 34.3258C83.6949 34.2961 83.7657 34.2385 83.8019 34.1529C83.8381 34.0673 83.8562 33.9357 83.8562 33.7579V31.5951C83.6587 31.6083 83.4875 31.6511 83.3427 31.7235C83.1978 31.7992 83.0464 31.9325 82.8884 32.1235C82.7337 32.3177 82.546 32.6041 82.3255 32.9827C82.0358 33.4797 81.8152 33.8353 81.6638 34.0492C81.5124 34.2632 81.4054 34.3883 81.3428 34.4245C81.2803 34.4574 81.1996 34.4739 81.1009 34.4739H80.1824C80.166 34.4739 80.1577 34.4574 80.1577 34.4245C80.1577 34.3883 80.166 34.3702 80.1824 34.3702C80.4919 34.3636 80.7585 34.2435 80.9824 34.0097C81.2095 33.776 81.4827 33.3744 81.8021 32.8049C82.0259 32.4132 82.2333 32.1284 82.4242 31.9506C82.6119 31.7729 82.8308 31.6544 83.081 31.5951C82.5641 31.549 82.1724 31.4091 81.9057 31.1754C81.6358 30.9417 81.5008 30.6372 81.5008 30.2619C81.5008 29.9953 81.57 29.7582 81.7082 29.5508C81.8465 29.3435 82.0391 29.1821 82.286 29.0669C82.5329 28.9517 82.8094 28.8941 83.1155 28.8941C83.2538 28.8941 83.4118 28.9023 83.5896 28.9188C83.6587 28.9254 83.741 28.932 83.8365 28.9385C83.9319 28.9451 84.0356 28.9484 84.1475 28.9484C84.3023 28.9484 84.5031 28.9418 84.75 28.9287L85.2042 28.9188C85.2174 28.9188 85.224 28.9369 85.224 28.9731C85.224 29.0093 85.2174 29.0274 85.2042 29.0274C84.9738 29.0274 84.8059 29.0439 84.7006 29.0768C84.5919 29.1097 84.5195 29.1673 84.4833 29.2496C84.4504 29.3319 84.4339 29.462 84.4339 29.6397V33.7579C84.4339 33.9357 84.452 34.0673 84.4882 34.1529C84.5278 34.2385 84.6002 34.2961 84.7055 34.3258C84.8076 34.3554 84.9738 34.3702 85.2042 34.3702ZM82.1033 30.0397C82.1033 30.4742 82.2251 30.8215 82.4687 31.0816C82.7123 31.3416 83.0645 31.4717 83.5254 31.4717C83.6011 31.4717 83.7114 31.4651 83.8562 31.4519V29.6595C83.8562 29.4225 83.7838 29.2546 83.6389 29.1558C83.4974 29.0571 83.3196 29.0077 83.1056 29.0077C82.4374 29.0077 82.1033 29.3517 82.1033 30.0397Z" fill="#1E1F1F"/>
<path d="M95.0355 34.3702C95.0487 34.3702 95.0553 34.3883 95.0553 34.4245C95.0553 34.4575 95.0487 34.4739 95.0355 34.4739H93.9146C93.8323 34.4739 93.7599 34.4525 93.6974 34.4097C93.6348 34.3636 93.5328 34.2468 93.3912 34.0591C93.2497 33.8682 92.9946 33.5094 92.6259 32.9827C92.3362 32.5679 92.1255 32.2799 91.9938 32.1186C91.8654 31.9605 91.7321 31.847 91.5938 31.7778C91.4589 31.7087 91.2762 31.6741 91.0457 31.6741C90.9931 31.6741 90.9536 31.6774 90.9272 31.684V33.7579C90.9272 33.9357 90.947 34.0674 90.9865 34.153C91.026 34.2385 91.0968 34.2962 91.1988 34.3258C91.3042 34.3554 91.472 34.3702 91.7025 34.3702C91.7156 34.3702 91.7222 34.3883 91.7222 34.4245C91.7222 34.4575 91.7156 34.4739 91.7025 34.4739C91.5181 34.4739 91.3733 34.4723 91.2679 34.469L90.626 34.4591L90.0236 34.469C89.915 34.4723 89.7668 34.4739 89.5792 34.4739C89.566 34.4739 89.5594 34.4575 89.5594 34.4245C89.5594 34.3883 89.566 34.3702 89.5792 34.3702C89.803 34.3702 89.9693 34.3554 90.0779 34.3258C90.1833 34.2962 90.2557 34.2385 90.2952 34.153C90.3314 34.0674 90.3495 33.9357 90.3495 33.7579V29.6397C90.3495 29.462 90.333 29.332 90.3001 29.2497C90.2639 29.1674 90.1915 29.1097 90.0829 29.0768C89.9775 29.0439 89.8129 29.0275 89.5891 29.0275C89.5759 29.0275 89.5693 29.0093 89.5693 28.9731C89.5693 28.9369 89.5759 28.9188 89.5891 28.9188L90.0236 28.9287C90.2705 28.9419 90.4713 28.9484 90.626 28.9484C90.7972 28.9484 91.0145 28.9419 91.2778 28.9287L91.7025 28.9188C91.7156 28.9188 91.7222 28.9369 91.7222 28.9731C91.7222 29.0093 91.7156 29.0275 91.7025 29.0275C91.4786 29.0275 91.3124 29.0456 91.2038 29.0818C91.0984 29.118 91.026 29.1789 90.9865 29.2645C90.947 29.3501 90.9272 29.4817 90.9272 29.6595V31.5359C91.2498 31.5227 91.449 31.5161 91.5247 31.5161H91.6926L92.7691 30.015C93.0357 29.6463 93.169 29.3912 93.169 29.2497C93.169 29.1739 93.1328 29.118 93.0604 29.0818C92.9847 29.0456 92.8695 29.0275 92.7147 29.0275C92.7049 29.0275 92.6999 29.0093 92.6999 28.9731C92.6999 28.9369 92.7049 28.9188 92.7147 28.9188L93.0999 28.9287C93.3237 28.9419 93.5328 28.9484 93.727 28.9484C93.9311 28.9484 94.1385 28.9419 94.3492 28.9287L94.6701 28.9188C94.6899 28.9188 94.6998 28.9369 94.6998 28.9731C94.6998 29.0093 94.6899 29.0275 94.6701 29.0275C94.364 29.0275 94.0924 29.1032 93.8554 29.2546C93.6184 29.406 93.3632 29.6628 93.09 30.0249L91.9 31.5408C92.0415 31.5672 92.1633 31.6149 92.2654 31.684C92.3707 31.7564 92.4761 31.8568 92.5814 31.9852C92.6901 32.1103 92.8481 32.321 93.0555 32.6173L93.1888 32.8049C93.4653 33.1967 93.6891 33.4962 93.8603 33.7036C94.0348 33.911 94.2159 34.0723 94.4035 34.1875C94.5944 34.3027 94.8051 34.3636 95.0355 34.3702Z" fill="#1E1F1F"/>
<path d="M98.892 34.5826C98.3422 34.5826 97.8517 34.4542 97.4205 34.1974C96.9926 33.9374 96.6617 33.5868 96.428 33.1457C96.1943 32.7045 96.0774 32.2239 96.0774 31.7038C96.0774 31.0915 96.2305 30.5681 96.5366 30.1336C96.8461 29.699 97.2427 29.3715 97.7267 29.1509C98.2073 28.9337 98.6994 28.825 99.2031 28.825C99.766 28.825 100.261 28.9567 100.689 29.2201C101.114 29.4834 101.442 29.8307 101.672 30.2619C101.899 30.6965 102.013 31.1557 102.013 31.6396C102.013 32.1795 101.871 32.6749 101.588 33.1259C101.302 33.5769 100.92 33.9324 100.442 34.1925C99.9652 34.4525 99.4483 34.5826 98.892 34.5826ZM99.2031 34.3949C99.608 34.3949 99.9717 34.2978 100.294 34.1036C100.617 33.9061 100.872 33.618 101.06 33.2395C101.244 32.8609 101.336 32.4116 101.336 31.8914C101.336 31.3318 101.233 30.8364 101.025 30.4051C100.818 29.9739 100.526 29.6365 100.151 29.3929C99.7759 29.1493 99.3364 29.0275 98.8327 29.0275C98.1809 29.0275 97.6707 29.2382 97.302 29.6595C96.9333 30.0809 96.749 30.6586 96.749 31.3927C96.749 31.9491 96.8527 32.4577 97.06 32.9185C97.2674 33.3761 97.5588 33.7366 97.934 33.9999C98.306 34.2633 98.729 34.3949 99.2031 34.3949Z" fill="#1E1F1F"/>
<path d="M110.501 34.3702C110.517 34.3702 110.526 34.3883 110.526 34.4245C110.526 34.4575 110.517 34.4739 110.501 34.4739C110.317 34.4739 110.172 34.4723 110.066 34.469L109.454 34.4591L108.881 34.469C108.789 34.4723 108.656 34.4739 108.481 34.4739C108.471 34.4739 108.466 34.4575 108.466 34.4245C108.466 34.3883 108.471 34.3702 108.481 34.3702C108.685 34.3702 108.835 34.3538 108.931 34.3208C109.029 34.2879 109.095 34.2303 109.128 34.148C109.161 34.0657 109.171 33.9357 109.158 33.7579L109 29.7138L106.97 34.4147C106.96 34.4377 106.937 34.4492 106.901 34.4492C106.872 34.4492 106.845 34.4377 106.822 34.4147L104.635 29.7632L104.556 33.5061C104.549 33.8221 104.602 34.0443 104.714 34.1727C104.826 34.3044 105.025 34.3702 105.311 34.3702C105.321 34.3702 105.326 34.3883 105.326 34.4245C105.326 34.4575 105.321 34.4739 105.311 34.4739C105.143 34.4739 105.015 34.4723 104.926 34.469L104.447 34.4591L103.988 34.469C103.902 34.4723 103.784 34.4739 103.632 34.4739C103.619 34.4739 103.613 34.4575 103.613 34.4245C103.613 34.3883 103.619 34.3702 103.632 34.3702C103.879 34.3702 104.059 34.3027 104.171 34.1678C104.279 34.0361 104.337 33.8155 104.343 33.5061L104.422 29.383C104.245 29.146 104.001 29.0275 103.692 29.0275C103.682 29.0275 103.677 29.0093 103.677 28.9731C103.677 28.9369 103.682 28.9188 103.692 28.9188L104.022 28.9287C104.082 28.9353 104.164 28.9386 104.269 28.9386C104.378 28.9386 104.468 28.9353 104.541 28.9287C104.617 28.9221 104.674 28.9188 104.714 28.9188C104.793 28.9188 104.857 28.9484 104.906 29.0077C104.956 29.0637 105.028 29.1888 105.124 29.383L107.104 33.5604L109.044 29.141C109.11 28.9929 109.199 28.9188 109.311 28.9188C109.34 28.9188 109.383 28.9221 109.439 28.9287C109.495 28.9353 109.571 28.9386 109.666 28.9386L110.081 28.9287C110.147 28.9221 110.246 28.9188 110.377 28.9188C110.394 28.9188 110.402 28.9369 110.402 28.9731C110.402 29.0093 110.394 29.0275 110.377 29.0275C110.081 29.0275 109.869 29.0702 109.74 29.1558C109.612 29.2414 109.551 29.4027 109.558 29.6397L109.736 33.7579C109.742 33.939 109.765 34.0723 109.805 34.1579C109.841 34.2402 109.91 34.2962 110.012 34.3258C110.114 34.3554 110.277 34.3702 110.501 34.3702Z" fill="#1E1F1F"/>
<path d="M117.814 34.3702C117.834 34.3702 117.844 34.3883 117.844 34.4245C117.844 34.4575 117.834 34.4739 117.814 34.4739C117.626 34.4739 117.478 34.4723 117.37 34.469L116.767 34.4591L116.135 34.469C116.03 34.4723 115.885 34.4739 115.701 34.4739C115.684 34.4739 115.676 34.4575 115.676 34.4245C115.676 34.3883 115.684 34.3702 115.701 34.3702C115.924 34.3702 116.091 34.3554 116.199 34.3258C116.305 34.2962 116.375 34.2385 116.412 34.153C116.448 34.0674 116.466 33.9357 116.466 33.7579V29.6743C116.466 29.4735 116.456 29.3402 116.436 29.2743C116.413 29.2118 116.361 29.1707 116.278 29.1509C116.196 29.1344 116.026 29.1262 115.77 29.1262H113.948C113.681 29.1262 113.503 29.1344 113.414 29.1509C113.325 29.1707 113.269 29.2134 113.246 29.2793C113.223 29.3484 113.212 29.4801 113.212 29.6743V33.7579C113.212 33.9357 113.232 34.0674 113.271 34.153C113.307 34.2385 113.378 34.2962 113.483 34.3258C113.586 34.3554 113.753 34.3702 113.987 34.3702C113.997 34.3702 114.002 34.3883 114.002 34.4245C114.002 34.4575 113.997 34.4739 113.987 34.4739C113.803 34.4739 113.656 34.4723 113.548 34.469L112.911 34.4591L112.303 34.469C112.198 34.4723 112.05 34.4739 111.859 34.4739C111.849 34.4739 111.844 34.4575 111.844 34.4245C111.844 34.3883 111.849 34.3702 111.859 34.3702C112.086 34.3702 112.254 34.3554 112.363 34.3258C112.471 34.2962 112.545 34.2385 112.585 34.153C112.624 34.0674 112.644 33.9357 112.644 33.7579V29.7484C112.644 29.564 112.624 29.4208 112.585 29.3188C112.545 29.22 112.47 29.146 112.358 29.0966C112.246 29.0505 112.083 29.0275 111.869 29.0275C111.859 29.0275 111.854 29.0093 111.854 28.9731C111.854 28.9369 111.859 28.9188 111.869 28.9188C112.07 28.9188 112.262 28.9221 112.447 28.9287C113.217 28.9419 114.027 28.9484 114.876 28.9484C115.646 28.9484 116.528 28.9386 117.523 28.9188H117.814C117.834 28.9188 117.844 28.9369 117.844 28.9731C117.844 29.0093 117.834 29.0275 117.814 29.0275C117.508 29.0275 117.302 29.0801 117.197 29.1855C117.095 29.2941 117.044 29.4817 117.044 29.7484V33.7579C117.044 33.9357 117.063 34.0674 117.103 34.153C117.139 34.2385 117.212 34.2962 117.32 34.3258C117.426 34.3554 117.59 34.3702 117.814 34.3702Z" fill="#1E1F1F"/>
<path d="M125.186 34.3702C125.209 34.3702 125.221 34.3883 125.221 34.4246C125.221 34.4575 125.209 34.4739 125.186 34.4739C125.071 34.4739 124.895 34.469 124.658 34.4591C124.421 34.446 124.25 34.4394 124.144 34.4394C124.013 34.4394 123.846 34.446 123.646 34.4591C123.458 34.469 123.313 34.4739 123.211 34.4739C123.188 34.4739 123.176 34.4575 123.176 34.4246C123.176 34.3883 123.188 34.3702 123.211 34.3702C123.432 34.3702 123.591 34.3488 123.69 34.306C123.792 34.2665 123.843 34.1958 123.843 34.0937C123.843 34.0114 123.804 33.8847 123.725 33.7135L122.702 31.5359H121.024L120.258 33.3481C120.176 33.5489 120.135 33.7151 120.135 33.8468C120.135 34.1958 120.426 34.3702 121.009 34.3702C121.038 34.3702 121.053 34.3883 121.053 34.4246C121.053 34.4575 121.038 34.4739 121.009 34.4739C120.9 34.4739 120.745 34.469 120.545 34.4591C120.321 34.446 120.125 34.4394 119.957 34.4394C119.802 34.4394 119.624 34.446 119.424 34.4591C119.246 34.469 119.098 34.4739 118.979 34.4739C118.95 34.4739 118.935 34.4575 118.935 34.4246C118.935 34.3883 118.95 34.3702 118.979 34.3702C119.147 34.3702 119.289 34.339 119.404 34.2764C119.519 34.2139 119.628 34.1036 119.73 33.9456C119.835 33.7909 119.95 33.5654 120.075 33.2691L121.947 28.8398C121.96 28.8234 121.981 28.8151 122.011 28.8151C122.041 28.8151 122.059 28.8234 122.065 28.8398L124.164 33.2592C124.365 33.697 124.536 33.9917 124.678 34.1431C124.819 34.2945 124.989 34.3702 125.186 34.3702ZM121.814 29.6595L121.103 31.3483H122.613L121.814 29.6595Z" fill="#1E1F1F"/>
<path d="M132.465 34.3702C132.481 34.3702 132.489 34.3883 132.489 34.4245C132.489 34.4575 132.481 34.4739 132.465 34.4739C132.28 34.4739 132.135 34.4723 132.03 34.469L131.413 34.4591L130.766 34.469C130.661 34.4723 130.519 34.4739 130.341 34.4739C130.321 34.4739 130.312 34.4575 130.312 34.4245C130.312 34.3883 130.321 34.3702 130.341 34.3702C130.572 34.3702 130.74 34.3554 130.845 34.3258C130.954 34.2962 131.026 34.2385 131.062 34.153C131.102 34.0674 131.121 33.9357 131.121 33.7579V31.6741H127.709V33.7579C127.709 33.9357 127.729 34.0674 127.769 34.153C127.805 34.2385 127.877 34.2962 127.986 34.3258C128.091 34.3554 128.259 34.3702 128.49 34.3702C128.503 34.3702 128.509 34.3883 128.509 34.4245C128.509 34.4575 128.503 34.4739 128.49 34.4739C128.305 34.4739 128.16 34.4723 128.055 34.469L127.413 34.4591L126.801 34.469C126.695 34.4723 126.547 34.4739 126.356 34.4739C126.347 34.4739 126.342 34.4575 126.342 34.4245C126.342 34.3883 126.347 34.3702 126.356 34.3702C126.584 34.3702 126.751 34.3554 126.86 34.3258C126.969 34.2962 127.043 34.2385 127.082 34.153C127.122 34.0674 127.142 33.9357 127.142 33.7579V29.6397C127.142 29.462 127.122 29.332 127.082 29.2497C127.043 29.1674 126.97 29.1097 126.865 29.0768C126.756 29.0439 126.59 29.0275 126.366 29.0275C126.353 29.0275 126.347 29.0093 126.347 28.9731C126.347 28.9369 126.353 28.9188 126.366 28.9188L126.821 28.9287C127.067 28.9419 127.265 28.9484 127.413 28.9484C127.588 28.9484 127.805 28.9419 128.065 28.9287L128.49 28.9188C128.503 28.9188 128.509 28.9369 128.509 28.9731C128.509 29.0093 128.503 29.0275 128.49 29.0275C128.266 29.0275 128.099 29.0456 127.991 29.0818C127.879 29.118 127.805 29.1789 127.769 29.2645C127.729 29.3501 127.709 29.4817 127.709 29.6595V31.4914H131.121V29.6595C131.121 29.4817 131.102 29.3501 131.062 29.2645C131.026 29.1789 130.954 29.118 130.845 29.0818C130.74 29.0456 130.572 29.0275 130.341 29.0275C130.321 29.0275 130.312 29.0093 130.312 28.9731C130.312 28.9369 130.321 28.9188 130.341 28.9188L130.766 28.9287C131.026 28.9419 131.242 28.9484 131.413 28.9484C131.574 28.9484 131.78 28.9419 132.03 28.9287L132.465 28.9188C132.481 28.9188 132.489 28.9369 132.489 28.9731C132.489 29.0093 132.481 29.0275 132.465 29.0275C132.237 29.0275 132.071 29.0439 131.966 29.0768C131.86 29.1097 131.788 29.1674 131.749 29.2497C131.709 29.332 131.689 29.462 131.689 29.6397V33.7579C131.689 33.9357 131.709 34.0674 131.749 34.153C131.788 34.2385 131.86 34.2962 131.966 34.3258C132.071 34.3554 132.237 34.3702 132.465 34.3702Z" fill="#1E1F1F"/>
<path d="M139.95 34.3702C139.96 34.3702 139.965 34.3883 139.965 34.4245C139.965 34.4575 139.96 34.4739 139.95 34.4739C139.759 34.4739 139.611 34.4723 139.506 34.469L138.889 34.4591L138.242 34.469C138.137 34.4723 137.995 34.4739 137.817 34.4739C137.804 34.4739 137.797 34.4575 137.797 34.4245C137.797 34.3883 137.804 34.3702 137.817 34.3702C138.048 34.3702 138.216 34.3554 138.321 34.3258C138.43 34.2962 138.502 34.2385 138.538 34.153C138.578 34.0674 138.597 33.9357 138.597 33.7579V30.0842L135.289 33.6246V33.7579C135.289 33.9357 135.309 34.0674 135.348 34.153C135.388 34.2385 135.46 34.2962 135.566 34.3258C135.674 34.3554 135.844 34.3702 136.074 34.3702C136.084 34.3702 136.089 34.3883 136.089 34.4245C136.089 34.4575 136.084 34.4739 136.074 34.4739C135.89 34.4739 135.745 34.4723 135.64 34.469L134.998 34.4591L134.385 34.469C134.277 34.4723 134.129 34.4739 133.941 34.4739C133.928 34.4739 133.921 34.4575 133.921 34.4245C133.921 34.3883 133.928 34.3702 133.941 34.3702C134.165 34.3702 134.331 34.3554 134.44 34.3258C134.552 34.2962 134.626 34.2385 134.662 34.153C134.701 34.0674 134.721 33.9357 134.721 33.7579V29.6397C134.721 29.462 134.701 29.332 134.662 29.2497C134.626 29.1674 134.553 29.1097 134.445 29.0768C134.339 29.0439 134.175 29.0275 133.951 29.0275C133.938 29.0275 133.931 29.0093 133.931 28.9731C133.931 28.9369 133.938 28.9188 133.951 28.9188L134.4 28.9287C134.65 28.9419 134.85 28.9484 134.998 28.9484C135.169 28.9484 135.385 28.9419 135.645 28.9287L136.074 28.9188C136.084 28.9188 136.089 28.9369 136.089 28.9731C136.089 29.0093 136.084 29.0275 136.074 29.0275C135.847 29.0275 135.679 29.0456 135.57 29.0818C135.462 29.118 135.388 29.1789 135.348 29.2645C135.309 29.3501 135.289 29.4817 135.289 29.6595V33.3185L138.597 29.8027V29.6595C138.597 29.4817 138.578 29.3501 138.538 29.2645C138.502 29.1789 138.43 29.118 138.321 29.0818C138.216 29.0456 138.048 29.0275 137.817 29.0275C137.804 29.0275 137.797 29.0093 137.797 28.9731C137.797 28.9369 137.804 28.9188 137.817 28.9188L138.242 28.9287C138.502 28.9419 138.718 28.9484 138.889 28.9484C139.037 28.9484 139.243 28.9419 139.506 28.9287L139.95 28.9188C139.96 28.9188 139.965 28.9369 139.965 28.9731C139.965 29.0093 139.96 29.0275 139.95 29.0275C139.723 29.0275 139.557 29.0439 139.452 29.0768C139.343 29.1097 139.271 29.1674 139.234 29.2497C139.195 29.332 139.175 29.462 139.175 29.6397V33.7579C139.175 33.9357 139.195 34.0674 139.234 34.153C139.271 34.2385 139.343 34.2962 139.452 34.3258C139.557 34.3554 139.723 34.3702 139.95 34.3702Z" fill="#1E1F1F"/>
<path d="M146.063 34.3702C146.073 34.3702 146.078 34.3883 146.078 34.4245C146.078 34.4574 146.073 34.4739 146.063 34.4739C145.872 34.4739 145.724 34.4722 145.619 34.469L145.007 34.4591L144.385 34.469C144.276 34.4722 144.129 34.4739 143.945 34.4739C143.935 34.4739 143.93 34.4574 143.93 34.4245C143.93 34.3883 143.935 34.3702 143.945 34.3702C144.172 34.3702 144.338 34.3554 144.444 34.3258C144.552 34.2961 144.623 34.2385 144.656 34.1529C144.692 34.0673 144.71 33.9357 144.71 33.7579V31.5951C144.516 31.6083 144.347 31.6511 144.202 31.7235C144.057 31.7992 143.906 31.9325 143.748 32.1235C143.59 32.3177 143.402 32.6041 143.185 32.9827C142.892 33.4797 142.671 33.8353 142.523 34.0492C142.372 34.2632 142.265 34.3883 142.202 34.4245C142.139 34.4574 142.057 34.4739 141.955 34.4739H141.042C141.022 34.4739 141.012 34.4574 141.012 34.4245C141.012 34.3883 141.022 34.3702 141.042 34.3702C141.348 34.3636 141.614 34.2435 141.842 34.0097C142.065 33.776 142.337 33.3744 142.656 32.8049C142.883 32.4132 143.091 32.1284 143.278 31.9506C143.469 31.7729 143.69 31.6544 143.94 31.5951C143.423 31.549 143.03 31.4091 142.76 31.1754C142.49 30.9417 142.355 30.6372 142.355 30.2619C142.355 29.9953 142.426 29.7582 142.567 29.5508C142.706 29.3435 142.898 29.1821 143.145 29.0669C143.389 28.9517 143.665 28.8941 143.975 28.8941C144.11 28.8941 144.266 28.9023 144.444 28.9188C144.516 28.9254 144.6 28.932 144.696 28.9385C144.788 28.9451 144.891 28.9484 145.007 28.9484C145.158 28.9484 145.359 28.9418 145.609 28.9287L146.063 28.9188C146.073 28.9188 146.078 28.9369 146.078 28.9731C146.078 29.0093 146.073 29.0274 146.063 29.0274C145.833 29.0274 145.663 29.0439 145.555 29.0768C145.449 29.1097 145.379 29.1673 145.342 29.2496C145.306 29.3319 145.288 29.462 145.288 29.6397V33.7579C145.288 33.9357 145.308 34.0673 145.347 34.1529C145.387 34.2385 145.458 34.2961 145.56 34.3258C145.665 34.3554 145.833 34.3702 146.063 34.3702ZM142.962 30.0397C142.962 30.4742 143.083 30.8215 143.323 31.0816C143.566 31.3416 143.92 31.4717 144.385 31.4717C144.46 31.4717 144.569 31.4651 144.71 31.4519V29.6595C144.71 29.4225 144.64 29.2546 144.498 29.1558C144.357 29.0571 144.179 29.0077 143.965 29.0077C143.297 29.0077 142.962 29.3517 142.962 30.0397Z" fill="#1E1F1F"/>
<path d="M8.82053 14.5866C8.82053 15.1495 8.8946 15.5593 9.04273 15.8161C9.19416 16.0696 9.4855 16.249 9.91674 16.3543C10.348 16.4597 11.031 16.5123 11.9659 16.5123C12.0186 16.5123 12.045 16.5667 12.045 16.6753C12.045 16.7806 12.0186 16.8333 11.9659 16.8333C11.2417 16.8333 10.6772 16.8234 10.2723 16.8037L7.97615 16.779L6.20346 16.8037C5.87098 16.8234 5.42164 16.8333 4.85543 16.8333C4.82251 16.8333 4.80605 16.7806 4.80605 16.6753C4.80605 16.5667 4.82251 16.5123 4.85543 16.5123C5.52698 16.5123 6.01583 16.4696 6.32197 16.384C6.63141 16.2951 6.8388 16.1223 6.94414 15.8655C7.04948 15.612 7.10216 15.2203 7.10216 14.6903V2.45919C7.10216 1.93249 7.04948 1.54569 6.94414 1.29879C6.8388 1.0519 6.63141 0.880721 6.32197 0.785256C6.01583 0.686498 5.52698 0.63712 4.85543 0.63712C4.82251 0.63712 4.80605 0.584449 4.80605 0.479108C4.80605 0.373767 4.82251 0.321097 4.85543 0.321097L6.17877 0.345786C6.91945 0.381997 7.5087 0.400103 7.94653 0.400103C8.38764 0.400103 8.88143 0.373767 9.42788 0.321097C9.63857 0.321097 9.97269 0.307929 10.4303 0.281594C10.8878 0.255259 11.2845 0.24209 11.6203 0.24209C13.2399 0.24209 14.5386 0.602554 15.5163 1.32348C16.494 2.0477 16.9828 3.14885 16.9828 4.62691C16.9828 5.78896 16.6964 6.76665 16.1236 7.56C15.5508 8.35335 14.8167 8.9426 13.9213 9.32776C13.0227 9.7162 12.0976 9.91042 11.1463 9.91042C10.636 9.91042 10.213 9.86598 9.87723 9.7771C9.82456 9.7771 9.79822 9.73266 9.79822 9.64378C9.79822 9.59111 9.81139 9.53844 9.83773 9.48577C9.86406 9.4331 9.89534 9.41664 9.93155 9.43639C10.2114 9.50552 10.5274 9.54009 10.8796 9.54009C12.0417 9.54009 13.0243 9.16152 13.8275 8.40438C14.6275 7.64724 15.0274 6.55597 15.0274 5.13057C15.0274 3.7381 14.6489 2.64189 13.8917 1.84196C13.1346 1.03873 12.1668 0.63712 10.9883 0.63712C10.3529 0.63712 9.89369 0.671685 9.61059 0.740815C9.33078 0.813237 9.12832 0.976186 9.00323 1.22966C8.88143 1.48643 8.82053 1.91438 8.82053 2.51351V14.5866Z" fill="#1E1F1F"/>
<path d="M38.6205 16.5123C38.6534 16.5123 38.6698 16.5667 38.6698 16.6753C38.6698 16.7806 38.6534 16.8333 38.6205 16.8333H35.2133C34.7722 16.8333 33.9476 16.0795 32.7395 14.5718C31.5346 13.0674 30.0697 10.9671 28.3448 8.27105C27.9201 8.39615 27.4444 8.45869 26.9177 8.45869C26.582 8.45869 26.1853 8.44059 25.7277 8.40438V14.6903C25.7277 15.2367 25.7804 15.6334 25.8857 15.8803C25.9911 16.1272 26.1985 16.2951 26.5079 16.384C26.814 16.4696 27.3029 16.5123 27.9744 16.5123C28.0271 16.5123 28.0534 16.5667 28.0534 16.6753C28.0534 16.7806 28.0271 16.8333 27.9744 16.8333C27.428 16.8333 26.9967 16.8234 26.6807 16.8037L24.8537 16.779L23.0613 16.8037C22.7419 16.8234 22.2926 16.8333 21.7132 16.8333C21.677 16.8333 21.6589 16.7806 21.6589 16.6753C21.6589 16.5667 21.677 16.5123 21.7132 16.5123C22.3815 16.5123 22.8736 16.4646 23.1896 16.3691C23.509 16.2737 23.7295 16.1025 23.8513 15.8556C23.9764 15.6087 24.039 15.2203 24.039 14.6903V2.45919C24.039 1.93249 23.9814 1.54569 23.8661 1.29879C23.7509 1.0519 23.5386 0.880721 23.2292 0.785256C22.923 0.686498 22.4342 0.63712 21.7626 0.63712C21.7099 0.63712 21.6836 0.584449 21.6836 0.479108C21.6836 0.373767 21.7099 0.321097 21.7626 0.321097L23.0613 0.345786C23.7987 0.381997 24.3961 0.400103 24.8537 0.400103C25.173 0.400103 25.4726 0.391872 25.7524 0.375413C26.0355 0.355661 26.2824 0.337556 26.4931 0.321097C27.056 0.268426 27.5662 0.24209 28.0238 0.24209C29.4525 0.24209 30.5536 0.531779 31.3272 1.11115C32.1041 1.69382 32.4926 2.50528 32.4926 3.54552C32.4926 4.38825 32.2457 5.18489 31.7519 5.93545C31.2581 6.68271 30.6063 7.2769 29.7965 7.71801C31.2943 9.95322 32.5535 11.7012 33.574 12.962C34.5945 14.2195 35.5014 15.1265 36.2947 15.6828C37.0881 16.2358 37.8633 16.5123 38.6205 16.5123ZM25.7277 7.7427C26.1688 7.81512 26.6889 7.85134 27.2881 7.85134C28.5028 7.85134 29.3735 7.59128 29.9002 7.07115C30.4302 6.55103 30.6952 5.68361 30.6952 4.4689C30.6952 1.91438 29.6204 0.63712 27.4708 0.63712C26.9967 0.63712 26.6396 0.676623 26.3993 0.755628C26.1622 0.834634 25.9911 1.00252 25.8857 1.25929C25.7804 1.51277 25.7277 1.93084 25.7277 2.51351V7.7427Z" fill="#1E1F1F"/>
<path d="M59.3052 16.5124C59.3744 16.5124 59.4089 16.5667 59.4089 16.6753C59.4089 16.7806 59.3744 16.8333 59.3052 16.8333C58.9695 16.8333 58.4493 16.8152 57.7449 16.779C57.0404 16.7428 56.5302 16.7247 56.2141 16.7247C55.8257 16.7247 55.3319 16.7428 54.7328 16.779C54.1699 16.8152 53.7386 16.8333 53.4391 16.8333C53.3699 16.8333 53.3354 16.7806 53.3354 16.6753C53.3354 16.5667 53.3699 16.5124 53.4391 16.5124C54.0909 16.5124 54.5665 16.4515 54.8661 16.3297C55.1657 16.2079 55.3154 15.9972 55.3154 15.6976C55.3154 15.4507 55.2002 15.0721 54.9698 14.5619L51.933 8.08836H46.9408L44.6694 13.4756C44.4225 14.0747 44.2991 14.5685 44.2991 14.9569C44.2991 15.9939 45.1616 16.5124 46.8865 16.5124C46.9754 16.5124 47.0198 16.5667 47.0198 16.6753C47.0198 16.7806 46.9754 16.8333 46.8865 16.8333C46.5705 16.8333 46.1129 16.8152 45.5138 16.779C44.8455 16.7428 44.2645 16.7247 43.7707 16.7247C43.3131 16.7247 42.7848 16.7428 42.1857 16.779C41.659 16.8152 41.2195 16.8333 40.8673 16.8333C40.7784 16.8333 40.7339 16.7806 40.7339 16.6753C40.7339 16.5667 40.7784 16.5124 40.8673 16.5124C41.3578 16.5124 41.7758 16.4202 42.1215 16.2358C42.4638 16.0515 42.7897 15.7256 43.0992 15.2581C43.4053 14.794 43.7444 14.1208 44.1164 13.2386L49.6863 0.0840888C49.7225 0.0314183 49.785 0.00508308 49.8739 0.00508308C49.9628 0.00508308 50.0155 0.0314183 50.0319 0.0840888L56.2684 13.2139C56.8643 14.5175 57.3745 15.3931 57.7992 15.8408C58.2205 16.2885 58.7226 16.5124 59.3052 16.5124ZM49.2912 2.51352L47.1778 7.53038H51.6713L49.2912 2.51352Z" fill="#1E1F1F"/>
<path d="M77.4815 0.321053C77.5341 0.321053 77.5605 0.373723 77.5605 0.479064C77.5605 0.584405 77.5341 0.637075 77.4815 0.637075C76.8823 0.637075 76.3622 0.795087 75.9211 1.11111C75.48 1.43043 75.1096 1.96865 74.8101 2.72579L69.1859 16.8036C69.1661 16.8761 69.069 16.9123 68.8945 16.9123C68.753 16.9123 68.6559 16.8761 68.6032 16.8036L62.026 2.51346C61.7264 1.82545 61.4087 1.34154 61.073 1.06173C60.7405 0.778627 60.3092 0.637075 59.7792 0.637075C59.7266 0.637075 59.7002 0.584405 59.7002 0.479064C59.7002 0.373723 59.7266 0.321053 59.7792 0.321053L60.7816 0.345741C61.2754 0.381952 61.6721 0.400058 61.9716 0.400058C62.6761 0.400058 63.4332 0.381952 64.2431 0.345741L65.3294 0.321053C65.3821 0.321053 65.4084 0.373723 65.4084 0.479064C65.4084 0.584405 65.3821 0.637075 65.3294 0.637075C64.7829 0.637075 64.3731 0.707851 64.0999 0.849403C63.8266 0.990955 63.69 1.22797 63.69 1.56046C63.69 1.77443 63.769 2.05753 63.927 2.40977L69.4476 14.5075L74.2027 2.59247C74.3443 2.22378 74.4151 1.93244 74.4151 1.71847C74.4151 1.34977 74.2472 1.07819 73.9114 0.90372C73.5789 0.725957 73.0604 0.637075 72.356 0.637075C72.3033 0.637075 72.277 0.584405 72.277 0.479064C72.277 0.373723 72.3033 0.321053 72.356 0.321053L73.4917 0.345741C74.0908 0.381952 74.6356 0.400058 75.1261 0.400058C75.4981 0.400058 75.9129 0.381952 76.3704 0.345741L77.4815 0.321053Z" fill="#1E1F1F"/>
<path d="M88.8929 17.1494C87.2536 17.1494 85.7953 16.7659 84.518 15.9988C83.244 15.2318 82.2581 14.1932 81.5602 12.8831C80.8656 11.5696 80.5183 10.1376 80.5183 8.58711C80.5183 6.77327 80.9759 5.21949 81.8911 3.92577C82.8062 2.63205 83.9814 1.65929 85.4167 1.00749C86.852 0.355695 88.3185 0.0297966 89.8163 0.0297966C91.4886 0.0297966 92.9601 0.421533 94.2308 1.20501C95.4982 1.98848 96.4709 3.02379 97.149 4.31092C97.8272 5.59477 98.1662 6.95926 98.1662 8.40441C98.1662 10.0076 97.7432 11.4774 96.8972 12.8139C96.0512 14.1537 94.9188 15.2104 93.5 15.984C92.0844 16.7609 90.5488 17.1494 88.8929 17.1494ZM89.8163 16.5914C91.0146 16.5914 92.0927 16.3017 93.0506 15.7223C94.0119 15.1397 94.7706 14.2854 95.327 13.1596C95.88 12.0337 96.1565 10.6956 96.1565 9.14509C96.1565 7.48926 95.8487 6.01778 95.2332 4.73064C94.6176 3.4468 93.7501 2.44276 92.6309 1.71854C91.5117 0.997617 90.2031 0.637153 88.7053 0.637153C86.7697 0.637153 85.2554 1.26262 84.1625 2.51354C83.0696 3.76447 82.5231 5.4812 82.5231 7.66373C82.5231 9.31956 82.8325 10.8305 83.4514 12.1967C84.067 13.5595 84.9295 14.6327 86.0389 15.4162C87.1482 16.1996 88.4074 16.5914 89.8163 16.5914Z" fill="#1E1F1F"/>
<path d="M106.827 2.48877V14.5865C106.827 15.0968 106.882 15.4671 106.99 15.6976C107.095 15.9247 107.288 16.0778 107.568 16.1568C107.851 16.2358 108.309 16.2753 108.941 16.2753H111.824C112.828 16.2753 113.628 15.9675 114.224 15.3519C114.823 14.7363 115.22 13.8821 115.414 12.7892C115.414 12.7365 115.464 12.7151 115.562 12.725C115.658 12.7315 115.705 12.7612 115.705 12.8138C115.547 14.2754 115.468 15.4819 115.468 16.4333C115.468 16.5748 115.442 16.6769 115.389 16.7394C115.337 16.802 115.231 16.8333 115.073 16.8333H102.867C102.831 16.8333 102.813 16.7806 102.813 16.6753C102.813 16.5666 102.831 16.5123 102.867 16.5123C103.535 16.5123 104.024 16.4695 104.334 16.3839C104.643 16.295 104.85 16.1222 104.956 15.8654C105.061 15.612 105.114 15.2202 105.114 14.6902V2.45915C105.114 1.93244 105.061 1.54564 104.956 1.29875C104.85 1.05186 104.643 0.880677 104.334 0.785211C104.024 0.686454 103.535 0.637075 102.867 0.637075C102.831 0.637075 102.813 0.584405 102.813 0.479064C102.813 0.373723 102.831 0.321053 102.867 0.321053L104.161 0.345741C104.901 0.381952 105.501 0.400058 105.958 0.400058C106.452 0.400058 107.068 0.381952 107.805 0.345741L109.074 0.321053C109.127 0.321053 109.153 0.373723 109.153 0.479064C109.153 0.584405 109.127 0.637075 109.074 0.637075C108.422 0.637075 107.943 0.686454 107.637 0.785211C107.328 0.880677 107.115 1.05679 107 1.31356C106.885 1.56704 106.827 1.95878 106.827 2.48877Z" fill="#1E1F1F"/>
<path d="M131.052 12.8928C131.052 12.8599 131.089 12.8435 131.161 12.8435C131.214 12.8435 131.261 12.8517 131.304 12.8682C131.35 12.8846 131.373 12.911 131.373 12.9472C131.212 14.0565 131.131 15.2186 131.131 16.4333C131.131 16.5748 131.102 16.6769 131.042 16.7394C130.98 16.802 130.87 16.8333 130.712 16.8333H119.641C119.608 16.8333 119.592 16.7806 119.592 16.6753C119.592 16.5666 119.608 16.5123 119.641 16.5123C120.312 16.5123 120.801 16.4695 121.107 16.3839C121.417 16.295 121.629 16.1222 121.744 15.8654C121.856 15.612 121.912 15.2202 121.912 14.6902V2.45915C121.912 1.93244 121.856 1.54564 121.744 1.29875C121.629 1.05186 121.417 0.880677 121.107 0.785211C120.801 0.686454 120.312 0.637075 119.641 0.637075C119.608 0.637075 119.592 0.584405 119.592 0.479064C119.592 0.373723 119.608 0.321053 119.641 0.321053H130.262C130.42 0.321053 130.499 0.400058 130.499 0.55807L130.554 3.80718C130.554 3.85985 130.509 3.89113 130.42 3.901C130.331 3.90759 130.279 3.88454 130.262 3.83187C130.21 2.90026 129.928 2.1744 129.418 1.65427C128.908 1.13415 128.23 0.874093 127.384 0.874093H125.769C125.153 0.874093 124.701 0.923471 124.411 1.02223C124.121 1.11769 123.919 1.28394 123.804 1.52095C123.688 1.76126 123.631 2.11843 123.631 2.59247V7.95499H126.855C127.701 7.95499 128.304 7.81343 128.662 7.53033C129.025 7.25052 129.206 6.77648 129.206 6.10823C129.206 6.07202 129.258 6.05391 129.364 6.05391C129.469 6.05391 129.522 6.07202 129.522 6.10823L129.497 8.24632C129.497 8.75657 129.505 9.14337 129.522 9.40672L129.546 10.6757C129.546 10.712 129.494 10.7301 129.388 10.7301C129.283 10.7301 129.23 10.712 129.23 10.6757C129.23 9.90215 129.041 9.34746 128.662 9.01169C128.284 8.67591 127.655 8.50803 126.776 8.50803H123.631V14.5865C123.631 15.0803 123.683 15.4408 123.789 15.6679C123.894 15.8984 124.088 16.058 124.371 16.1469C124.651 16.2325 125.091 16.2753 125.69 16.2753H127.803C128.649 16.2753 129.354 15.9757 129.917 15.3766C130.483 14.7775 130.861 13.9496 131.052 12.8928Z" fill="#1E1F1F"/>
<path d="M151.949 16.5123C151.986 16.5123 152.004 16.5666 152.004 16.6753C152.004 16.7806 151.986 16.8333 151.949 16.8333C151.492 16.8333 151.131 16.8234 150.868 16.8036L149.416 16.7789L147.382 16.8036C147.063 16.8234 146.631 16.8333 146.088 16.8333C146.052 16.8333 146.034 16.7806 146.034 16.6753C146.034 16.5666 146.052 16.5123 146.088 16.5123C146.562 16.5123 146.905 16.4777 147.115 16.4086C147.326 16.3395 147.431 16.2243 147.431 16.063C147.431 15.9049 147.352 15.7124 147.194 15.4852L143.18 9.40672L139.827 14.1372C139.402 14.7363 139.19 15.2202 139.19 15.5889C139.19 16.2045 139.71 16.5123 140.75 16.5123C140.803 16.5123 140.829 16.5666 140.829 16.6753C140.829 16.7806 140.803 16.8333 140.75 16.8333C140.22 16.8333 139.815 16.8234 139.536 16.8036L137.714 16.7789L136.603 16.8036C136.408 16.8234 136.082 16.8333 135.625 16.8333C135.572 16.8333 135.546 16.7806 135.546 16.6753C135.546 16.5666 135.572 16.5123 135.625 16.5123C136.84 16.5123 138.038 15.7124 139.22 14.1125L142.943 9.01169L138.691 2.56778C138.23 1.86331 137.776 1.36459 137.328 1.07161C136.881 0.781919 136.347 0.637075 135.729 0.637075C135.696 0.637075 135.679 0.584405 135.679 0.479064C135.679 0.373723 135.696 0.321053 135.729 0.321053L136.736 0.345741C137.193 0.381952 137.528 0.400058 137.738 0.400058C138.337 0.400058 139.06 0.381952 139.906 0.345741L141.279 0.321053C141.331 0.321053 141.358 0.373723 141.358 0.479064C141.358 0.584405 141.331 0.637075 141.279 0.637075C140.821 0.637075 140.482 0.67164 140.261 0.740771C140.041 0.813192 139.931 0.936639 139.931 1.11111C139.931 1.25266 140.01 1.44688 140.168 1.69378L144.078 7.58465L147.17 3.19983C147.644 2.53157 147.881 1.98511 147.881 1.56046C147.881 0.944869 147.388 0.637075 146.404 0.637075C146.352 0.637075 146.325 0.584405 146.325 0.479064C146.325 0.373723 146.352 0.321053 146.404 0.321053L147.594 0.345741C148.262 0.381952 148.87 0.400058 149.416 0.400058C149.732 0.400058 150.101 0.381952 150.522 0.345741L151.5 0.321053C151.553 0.321053 151.579 0.373723 151.579 0.479064C151.579 0.584405 151.553 0.637075 151.5 0.637075C150.921 0.637075 150.313 0.857633 149.678 1.29875C149.046 1.73986 148.412 2.39166 147.777 3.25414L144.315 7.97968L148.73 14.6409C149.188 15.3256 149.658 15.8095 150.142 16.0926C150.626 16.3724 151.228 16.5123 151.949 16.5123Z" fill="#1E1F1F"/>
<path d="M156.333 23.7379H1.85229C0.740914 23.7379 0 23.6133 0 23.4263C0 23.2394 0.740914 23.1147 1.85229 23.1147H156.148C157.259 23.1147 158 23.2394 158 23.4263C158 23.6133 157.259 23.7379 156.333 23.7379Z" fill="#1E1F1F"/>
</svg>
