<svg width="16" height="14" viewBox="0 0 16 14" fill="none" xmlns="http://www.w3.org/2000/svg">
<path d="M14.5459 0.975586H1.54872C0.8428 0.975586 0 1.9634 0 2.66932V11.5543C0 12.2602 0.941855 13.0248 1.64778 13.0248L14.4471 13.007C15.153 13.007 16 12.6077 16 11.9018V2.59476C16 1.88884 15.2519 0.975586 14.5459 0.975586ZM1.64778 1.95478H14.4471C14.4822 1.95478 14.5124 1.96936 14.5459 1.97479L8.3874 6.97483C8.17928 7.10638 7.88181 7.08514 7.73026 6.99172L1.54872 1.97488C1.58229 1.96939 1.61265 1.95478 1.64778 1.95478ZM15.0871 11.5543C15.0871 11.9071 14.7999 12.1942 14.4471 12.1942H1.64778C1.295 12.1942 1.00782 11.9071 1.00782 11.5543V2.59476C1.00782 2.52322 1.02693 2.45722 1.04868 2.39293L7.35498 7.50887C7.56278 7.64323 7.80246 7.71447 8.04743 7.71447C8.28367 7.71447 8.5143 7.64854 8.71679 7.52323C8.73554 7.51355 8.75336 7.502 8.76958 7.48856L15.0462 2.39278C15.068 2.45713 15.087 2.52316 15.087 2.59476L15.0871 11.5543Z" fill="white"/>
</svg>
