<svg width="18" height="18" viewBox="0 0 18 18" fill="none" xmlns="http://www.w3.org/2000/svg">
<path d="M9 18C4.02353 18 0 13.9765 0 9C0 4.02353 4.02353 0 9 0C13.9765 0 18 4.02353 18 9C18 13.9765 13.9765 18 9 18ZM9 1.05882C4.60588 1.05882 1.05882 4.60588 1.05882 9C1.05882 13.3941 4.60588 16.9412 9 16.9412C13.3941 16.9412 16.9412 13.3941 16.9412 9C16.9412 4.60588 13.3941 1.05882 9 1.05882Z" fill="#19562A"/>
<path d="M7.94115 12.9177L3.33527 8.31183L4.07644 7.57065L7.94115 11.4354L13.9235 5.453L14.6647 6.19418L7.94115 12.9177Z" fill="#19562A"/>
</svg>
