<svg width="16" height="16" viewBox="0 0 16 16" fill="none" xmlns="http://www.w3.org/2000/svg">
<path d="M15.2614 10.909L13.0816 9.69588C12.5362 9.39238 11.8925 9.45895 11.4416 9.86539L10.011 11.1551C7.77294 10.4285 5.55928 8.34804 4.87138 6.32793L6.27909 4.72064C6.71526 4.22266 6.78714 3.54894 6.4622 3.00433L5.0883 0.701228C4.96312 0.485426 4.78283 0.306777 4.56589 0.183579C4.34895 0.0603805 4.10316 -0.00293936 3.8537 0.000104807H3.19211C2.2229 0.000104807 1.38839 0.441112 0.842406 1.24193C0.497845 1.74713 0.265669 2.22998 0.152315 2.6768C-0.190621 4.02858 0.0480874 5.65481 0.842562 7.37983C1.55797 8.93309 2.68122 10.4994 4.09097 11.9091C5.50071 13.3188 7.06688 14.442 8.62023 15.1577C9.83337 15.7164 10.9976 16.0002 12.0518 16.0002C12.4802 16.0024 12.9073 15.9512 13.3231 15.8479C13.7701 15.7345 14.2528 15.5024 14.758 15.1579C15.559 14.6117 16 13.7772 16 12.8079V12.1652C16.0018 11.9086 15.9342 11.6563 15.8041 11.4351C15.6741 11.2139 15.4865 11.0321 15.2614 10.909ZM14.1947 14.3314C13.7865 14.6098 13.4106 14.794 13.0773 14.8784C12.7424 14.9612 12.3984 15.0019 12.0533 14.9998C9.91922 14.9998 7.19355 13.5974 4.79812 11.2019C1.99901 8.40277 0.555912 5.15299 1.12171 2.92273C1.20609 2.58958 1.3902 2.21364 1.66863 1.80532C2.02779 1.27859 2.55458 1.00019 3.19211 1.00019H3.8537C3.92983 0.998132 4.00507 1.01692 4.07129 1.05453C4.13751 1.09215 4.19219 1.14714 4.22942 1.21358L5.60335 3.51672C5.70504 3.68714 5.67642 3.89088 5.52678 4.06171L3.93514 5.87902C3.88052 5.94138 3.84226 6.01634 3.82381 6.09715C3.80535 6.17797 3.80728 6.26211 3.82941 6.342C4.17632 7.59432 5.02374 8.8914 6.21528 9.99431C7.36175 11.0555 8.70699 11.8378 10.0031 12.1969C10.0842 12.2194 10.1696 12.2211 10.2515 12.2018C10.3333 12.1824 10.409 12.1428 10.4715 12.0864L12.1111 10.6082C12.2414 10.4907 12.4268 10.476 12.5953 10.5697L14.7751 11.7828C14.8448 11.8189 14.9029 11.8739 14.9427 11.9416C14.9824 12.0092 15.0023 12.0867 14.9999 12.1652V12.808C14.9999 13.4455 14.7215 13.9723 14.1947 14.3314Z" fill="white"/>
</svg>
