<svg width="32" height="19" viewBox="0 0 32 19" fill="none" xmlns="http://www.w3.org/2000/svg">
<path d="M31.3815 16.756C31.3433 16.6736 31.3077 16.6054 31.2746 16.5506C30.7273 15.5648 29.6813 14.3548 28.1372 12.9202L28.1046 12.8873L28.0883 12.8712L28.0718 12.8547H28.0552C27.3544 12.1867 26.9107 11.7375 26.7248 11.5076C26.3848 11.0695 26.3087 10.6261 26.4945 10.1768C26.6258 9.83738 27.119 9.12052 27.9729 8.02526C28.422 7.44481 28.7777 6.97959 29.0404 6.6291C30.9351 4.1103 31.7565 2.50075 31.5045 1.79983L31.4066 1.63603C31.3409 1.53742 31.1711 1.4472 30.8977 1.36493C30.6236 1.28283 30.2733 1.26925 29.8461 1.32397L25.1155 1.35665C25.0388 1.32949 24.9294 1.33202 24.7868 1.36493C24.6445 1.39784 24.5732 1.41435 24.5732 1.41435L24.4909 1.45549L24.4255 1.50491C24.3708 1.53759 24.3105 1.59507 24.2448 1.67722C24.1794 1.75909 24.1246 1.85517 24.0809 1.96466C23.5659 3.2897 22.9803 4.52166 22.3231 5.66047C21.9179 6.33954 21.5458 6.92804 21.2059 7.42634C20.8665 7.92446 20.5818 8.29147 20.352 8.52672C20.1219 8.7622 19.9142 8.95085 19.7277 9.09336C19.5414 9.23593 19.3993 9.29617 19.3008 9.27413C19.2022 9.2521 19.1092 9.23023 19.0213 9.20837C18.8681 9.10976 18.7448 8.97565 18.6519 8.80593C18.5586 8.6362 18.4958 8.42258 18.4629 8.16524C18.4302 7.90772 18.4109 7.68622 18.4054 7.49998C18.4003 7.31398 18.4026 7.05088 18.4137 6.71143C18.4251 6.37181 18.4302 6.14203 18.4302 6.02155C18.4302 5.60536 18.4383 5.15366 18.4546 4.66636C18.4712 4.17905 18.4846 3.79295 18.4958 3.5085C18.507 3.22377 18.5122 2.92253 18.5122 2.60494C18.5122 2.28736 18.4928 2.0383 18.4546 1.85753C18.4169 1.67699 18.359 1.50175 18.2826 1.33185C18.2058 1.16213 18.0934 1.03084 17.9459 0.937633C17.7981 0.844545 17.6143 0.770672 17.3956 0.715785C16.8152 0.584437 16.076 0.513384 15.1779 0.502337C13.1412 0.480475 11.8324 0.611995 11.2521 0.896727C11.0221 1.01703 10.814 1.1814 10.6279 1.38933C10.4308 1.63033 10.4033 1.76185 10.5456 1.78349C11.2027 1.88193 11.668 2.11741 11.9418 2.48971L12.0404 2.68699C12.1172 2.82932 12.1938 3.08132 12.2705 3.44263C12.3471 3.80394 12.3965 4.20362 12.4182 4.64145C12.4729 5.44098 12.4729 6.1254 12.4182 6.69475C12.3634 7.26433 12.3116 7.70773 12.2622 8.02532C12.2128 8.3429 12.1389 8.60025 12.0404 8.7973C11.9418 8.99441 11.8761 9.11488 11.8432 9.15861C11.8104 9.20233 11.783 9.22989 11.7612 9.24071C11.6189 9.29525 11.4708 9.32304 11.3176 9.32304C11.1642 9.32304 10.9781 9.24629 10.7592 9.0929C10.5402 8.93952 10.3131 8.72883 10.0776 8.4605C9.84208 8.19211 9.57651 7.81705 9.28073 7.33526C8.98519 6.85348 8.67853 6.28408 8.36095 5.62705L8.0982 5.15056C7.93394 4.84402 7.70956 4.39768 7.42483 3.81193C7.13992 3.22596 6.8881 2.65914 6.66919 2.1116C6.58168 1.88164 6.45022 1.70656 6.27503 1.58609L6.19281 1.53667C6.13816 1.49294 6.05042 1.44651 5.93006 1.39704C5.80953 1.34761 5.68376 1.31217 5.55224 1.29037L1.05148 1.32305C0.591556 1.32305 0.279496 1.42724 0.115181 1.63534L0.049421 1.73378C0.0165696 1.78861 0 1.87617 0 1.9967C0 2.11718 0.0328514 2.26504 0.0986119 2.44011C0.755641 3.9843 1.47015 5.47355 2.24213 6.90808C3.01411 8.34261 3.68494 9.49817 4.25423 10.3737C4.82364 11.2499 5.40403 12.0768 5.99542 12.8541C6.5868 13.6316 6.97826 14.1299 7.16978 14.3488C7.36154 14.5682 7.51216 14.7321 7.62165 14.8416L8.03238 15.2358C8.29519 15.4986 8.68112 15.8135 9.19035 16.1802C9.69969 16.5472 10.2636 16.9086 10.8823 17.2647C11.5011 17.6204 12.221 17.9106 13.0424 18.135C13.8637 18.3597 14.6631 18.4498 15.4406 18.4063H17.3297C17.7128 18.3732 18.0031 18.2528 18.2003 18.0448L18.2657 17.9625C18.3096 17.8971 18.3508 17.7956 18.3888 17.659C18.4272 17.5221 18.4463 17.3713 18.4463 17.2073C18.4351 16.7365 18.4709 16.3122 18.5528 15.9344C18.6347 15.5568 18.728 15.272 18.8324 15.0803C18.9367 14.8887 19.0544 14.727 19.1854 14.596C19.3167 14.4646 19.4103 14.385 19.4651 14.3576C19.5197 14.3301 19.5632 14.3114 19.5961 14.3002C19.8589 14.2126 20.1682 14.2974 20.5244 14.555C20.8804 14.8123 21.2143 15.1301 21.5266 15.5077C21.8387 15.8857 22.2137 16.3098 22.6516 16.7806C23.0898 17.2516 23.473 17.6017 23.8014 17.832L24.1298 18.0291C24.3491 18.1606 24.6339 18.2811 24.9844 18.3906C25.3342 18.5 25.6408 18.5274 25.904 18.4727L30.1089 18.4071C30.5248 18.4071 30.8484 18.3382 31.078 18.2016C31.308 18.0647 31.4446 17.9139 31.4887 17.7499C31.5327 17.5857 31.535 17.3994 31.4971 17.1911C31.4581 16.9833 31.4197 16.8381 31.3815 16.756Z" fill="white"/>
</svg>
