<svg width="18" height="18" viewBox="0 0 18 18" fill="none" xmlns="http://www.w3.org/2000/svg">
<path d="M9 18C4.02353 18 0 13.9765 0 9C0 4.02353 4.02353 0 9 0C13.9765 0 18 4.02353 18 9C18 13.9765 13.9765 18 9 18ZM9 1.05882C4.60588 1.05882 1.05882 4.60588 1.05882 9C1.05882 13.3941 4.60588 16.9412 9 16.9412C13.3941 16.9412 16.9412 13.3941 16.9412 9C16.9412 4.60588 13.3941 1.05882 9 1.05882Z" fill="#19562A"/>
<path d="M7.94109 12.9178L3.33521 8.31195L4.07638 7.57077L7.94109 11.4355L13.9234 5.45312L14.6646 6.1943L7.94109 12.9178Z" fill="#19562A"/>
</svg>
